#N canvas 78 232 866 636 10;
#X obj 92 229 phasor~;
#X obj 655 254 line~;
#X obj 90 372 cos~;
#X obj 655 230 pack 0 50;
#X obj 91 299 -~ 0.5;
#X obj 91 325 *~;
#X obj 655 155 / 10;
#X obj 655 179 moses 0;
#X msg 655 203 0;
#X obj 90 348 clip~ -0.5 0.5;
#X obj 655 279 +~ 1;
#X obj 90 396 +~ 1;
#X obj 89 421 *~ 0.5;
#X obj 91 141 samplerate~;
#X floatatom 91 186 5 0 0 0 - - -, f 5;
#X floatatom 654 134 5 0 0 0 - - -, f 5;
#X floatatom 265 63 5 0 0 0 - - -, f 5;
#X obj 91 116 t b b, f 17;
#X obj 137 207 f;
#X text 700 133 ?BANDWIDTH;
#X text 307 67 PHASE;
#X obj 265 210 / 22500;
#X obj 418 113 samplerate~;
#X obj 419 69 loadbang;
#X obj 421 92 bng 15 250 50 0 empty empty empty 17 7 0 10 -262144 -1
-1;
#X floatatom 418 135 5 0 0 0 - - -, f 5;
#X obj 337 203 / 2;
#X floatatom 337 225 5 0 0 0 - - -, f 5;
#X floatatom 265 232 5 0 0 0 - - -, f 5;
#X floatatom 335 171 5 0 0 0 - - -, f 5;
#X obj 335 149 / 4;
#X obj 265 141 -;
#X obj 265 251 abs;
#X obj 89 443 -~ 1;
#X obj 88 510 *~;
#X obj 89 465 abs~;
#X obj 89 487 -~ 1;
#X obj 88 532 +~ 1;
#X obj 265 35 t f b, f 17;
#X obj 483 449 f;
#X obj 500 420 r wait-time;
#X obj 435 423 f;
#X obj 512 368 r fade-time;
#X obj 483 471 del;
#X obj 483 536 pack;
#X obj 388 512 pack;
#X msg 388 490 1;
#X obj 421 575 line~;
#X msg 627 73 500;
#X obj 88 554 outlet~;
#X obj 91 94 r sync-bang;
#X obj 265 13 r notch-\$1;
#X obj 706 78 r bandwidth;
#X msg 483 514 0;
#X obj 413 242 bng 15 250 50 0 empty empty empty 17 7 0 10 -262144
-1 -1;
#X obj 388 327 t b b b b, f 21;
#X msg 675 345 1;
#X obj 765 373 f \$1;
#X floatatom 765 395 5 0 0 0 - - -, f 5;
#X obj 675 430 tabwrite filter-array;
#X obj 675 367 t f b;
#X floatatom 675 389 5 0 0 0 - - -, f 5;
#X obj 523 515 del;
#X msg 523 537 0;
#X obj 136 49 / 2;
#X obj 136 27 r win-size;
#X obj 91 164 / 1024;
#X obj 669 108 f;
#X connect 0 0 4 0;
#X connect 1 0 10 0;
#X connect 2 0 11 0;
#X connect 3 0 1 0;
#X connect 4 0 5 0;
#X connect 5 0 9 0;
#X connect 6 0 7 0;
#X connect 7 0 8 0;
#X connect 7 1 3 0;
#X connect 8 0 3 0;
#X connect 9 0 2 0;
#X connect 10 0 5 1;
#X connect 11 0 12 0;
#X connect 12 0 33 0;
#X connect 13 0 66 0;
#X connect 14 0 0 0;
#X connect 15 0 6 0;
#X connect 16 0 31 0;
#X connect 17 0 13 0;
#X connect 17 1 18 0;
#X connect 18 0 0 1;
#X connect 21 0 28 0;
#X connect 22 0 25 0;
#X connect 23 0 24 0;
#X connect 24 0 22 0;
#X connect 24 0 48 0;
#X connect 25 0 26 0;
#X connect 25 0 30 0;
#X connect 26 0 27 0;
#X connect 27 0 21 1;
#X connect 28 0 32 0;
#X connect 29 0 31 1;
#X connect 30 0 29 0;
#X connect 31 0 21 0;
#X connect 32 0 18 1;
#X connect 33 0 35 0;
#X connect 34 0 37 0;
#X connect 35 0 36 0;
#X connect 36 0 34 0;
#X connect 37 0 49 0;
#X connect 38 0 16 0;
#X connect 38 1 55 0;
#X connect 39 0 43 0;
#X connect 40 0 39 1;
#X connect 41 0 44 1;
#X connect 41 0 45 1;
#X connect 42 0 41 1;
#X connect 42 0 62 1;
#X connect 43 0 53 0;
#X connect 43 0 62 0;
#X connect 44 0 47 0;
#X connect 45 0 47 0;
#X connect 46 0 45 0;
#X connect 47 0 34 1;
#X connect 48 0 15 0;
#X connect 50 0 17 0;
#X connect 51 0 38 0;
#X connect 52 0 67 1;
#X connect 53 0 44 0;
#X connect 54 0 55 0;
#X connect 55 0 46 0;
#X connect 55 1 41 0;
#X connect 55 2 39 0;
#X connect 55 3 56 0;
#X connect 55 3 67 0;
#X connect 56 0 60 0;
#X connect 57 0 58 0;
#X connect 58 0 59 1;
#X connect 60 0 61 0;
#X connect 60 1 57 0;
#X connect 61 0 59 0;
#X connect 62 0 63 0;
#X connect 63 0 60 0;
#X connect 64 0 66 1;
#X connect 65 0 64 0;
#X connect 66 0 14 0;
#X connect 67 0 15 0;
